# xmcd CD database file
#
# Track frame offsets:
#	150
#	37922
#	57202
#	85890
#	113520
#	139745
#	175307
#	222782
#
# Disc length: 3129 seconds
#
# Revision: 0
# Processed by: cddbd v1.5.1PL0 Copyright (c) Steve Scherf et al.
# Submitted via: CDex 1.51
#
DISCID=630c3708
DTITLE=Freddie King - Freddie King Live! -Texas And Oklahoma Club Dates,1975-
DYEAR=1900
DGENRE=Blues
TTITLE0=Look On Yonder Wall
TTITLE1=Woman Across The River
TTITLE2=Mojo Boogie
TTITLE3=Something You Got
TTITLE4=Messing With The Kid
TTITLE5=Hey Baby
TTITLE6=Have You Ever Loved A Woman - Rock Me Baby
TTITLE7=Shake Your Booty Baby
EXTD=
EXTT0=
EXTT1=
EXTT2=
EXTT3=
EXTT4=
EXTT5=
EXTT6=
EXTT7=
PLAYORDER=
